Coordinates
version=1
nRows=26
nColumns=18
inDegrees=yes

Units are S.I. units (second, meters, Newtons, ...)
Angles are in degrees.

endheader
time	ground_thorax_rot_x	ground_thorax_rot_y	ground_thorax_rot_z	ground_thorax_tx	ground_thorax_ty	ground_thorax_tz	clav_prot	clav_elev	scapula_abduction	scapula_elevation	scapula_upward_rot	scapula_winging	plane_elv	shoulder_elv	axial_rot	elbow_flexion	pro_sup
      4.10000000	      0.50618536	     -4.64902646	     -9.14656665	     -0.00423131	      0.00403036	     -0.00078352	    -46.02822219	      9.10963688	     -3.73912208	     -2.00943192	     81.71853402	    -13.29560078	     37.33294179	     88.79931434	    -16.59701825	      0.00000000	     34.32000000
      4.11000000	      0.49723034	     -4.59764202	     -9.14732367	     -0.00423131	      0.00403036	     -0.00078352	    -46.22989643	      9.12506759	     -4.01470447	     -2.00618528	     81.80167215	    -13.42509546	     37.44135757	     88.43500445	    -16.50775551	      0.00000000	     34.32000000
      4.12000000	      0.52313605	     -4.81395061	     -9.18791196	     -0.00423131	      0.00403036	     -0.00078352	    -45.98362414	      9.10708070	     -3.74573141	     -2.01940431	     81.61120896	    -13.28123028	     37.33903457	     88.62964153	    -15.70682850	      0.00000000	     34.32000000
      4.13000000	      0.56371919	     -4.84310754	     -9.17075859	     -0.00423131	      0.00403036	     -0.00078352	    -45.97962238	      9.09424391	     -3.75134191	     -2.02981474	     81.59082346	    -13.27814286	     37.34760509	     88.57607058	    -15.73144336	      0.00000000	     34.32000000
      4.14000000	      0.44688446	     -4.92545046	     -9.10563260	     -0.00423131	      0.00403036	     -0.00078352	    -46.01728780	      8.99514837	     -3.73131348	     -2.09161297	     81.66558204	    -13.26498079	     37.47098634	     88.13200278	    -15.61491600	      0.00000000	     34.32000000
      4.15000000	      0.60265087	     -4.96571724	     -9.08965796	     -0.00423131	      0.00403036	     -0.00078352	    -46.05174744	      9.03507893	     -3.73847748	     -2.05872939	     81.74514658	    -13.28725594	     37.59330487	     88.12559849	    -15.67847833	      0.00000000	     34.32000000
      4.16000000	      0.40780217	     -4.87683973	     -9.14787020	     -0.00423131	      0.00403036	     -0.00078352	    -46.09635653	      8.91900628	     -4.00099389	     -2.17213023	     81.45631198	    -13.33057267	     37.73709509	     88.17699234	    -15.10271529	      0.00000000	     34.32000000
      4.17000000	      0.54775810	     -4.89005628	     -9.20601761	     -0.00423131	      0.00403036	     -0.00078352	    -46.15099997	      8.90345876	     -3.95000755	     -2.16727023	     81.63813322	    -13.33511576	     37.78920007	     88.18516810	    -15.46538891	      0.00000000	     34.32000000
      4.18000000	      0.59182435	     -4.91658872	     -9.11384564	     -0.00423131	      0.00403036	     -0.00078352	    -46.09768668	      9.02816856	     -3.91798354	     -2.08222724	     81.60663591	    -13.33816835	     37.72942035	     88.19032668	    -16.04602952	      0.00000000	     34.32000000
      4.19000000	      0.33998124	     -4.62973330	     -9.17231365	     -0.00423131	      0.00403036	     -0.00078352	    -46.23195217	      8.74863180	     -4.25105778	     -2.30773933	     81.36432655	    -13.38879530	     37.92345169	     88.09780589	    -15.58861952	      0.00000000	     34.32000000
      4.20000000	      0.23799854	     -4.56525129	     -9.33628244	     -0.00423131	      0.00403036	     -0.00078352	    -46.26723212	      8.47566371	     -4.31673241	     -2.50592595	     81.26115776	    -13.34995213	     38.05098186	     88.14840718	    -14.78013494	      0.00000000	     34.32000000
      4.21000000	      0.26681554	     -4.52118490	     -9.31641664	     -0.00423131	      0.00403036	     -0.00078352	    -46.24359709	      8.54245613	     -4.30961809	     -2.46096001	     81.24170869	    -13.35598210	     37.99224704	     88.12649316	    -14.82043750	      0.00000000	     34.32000000
      4.22000000	      0.50179867	     -4.78575525	     -9.14685724	     -0.00423131	      0.00403036	     -0.00078352	    -46.09053879	      8.87925222	     -3.92334789	     -2.19014001	     81.53283375	    -13.30326656	     37.83386394	     87.99301149	    -14.53085661	      0.00000000	     34.32000000
      4.23000000	      0.83546597	     -5.46201665	     -8.99580293	     -0.00423131	      0.00403036	     -0.00078352	    -45.43753938	      9.22287635	     -2.68772351	     -1.87088131	     81.84542527	    -12.90609775	     37.17859166	     88.21176796	    -15.21370322	      0.00000000	     34.32000000
      4.24000000	      0.63460227	     -4.99481786	     -9.03778934	     -0.00423131	      0.00403036	     -0.00078352	    -45.87180683	      9.09977420	     -3.54239639	     -2.01289010	     81.63195587	    -13.19992298	     37.61446370	     88.02086270	    -15.82306768	      0.00000000	     34.32000000
      4.25000000	      0.46621038	     -4.84254634	     -9.18982002	     -0.00423131	      0.00403036	     -0.00078352	    -45.94696250	      8.86442269	     -3.74628991	     -2.19786791	     81.44727351	    -13.21456342	     37.56817054	     88.11650448	    -16.29251362	      0.00000000	     34.32000000
      4.26000000	      0.36308899	     -4.78876395	     -9.23221771	     -0.00423131	      0.00403036	     -0.00078352	    -45.99758614	      8.73220782	     -3.89996518	     -2.30592636	     81.31018462	    -13.23263142	     37.74087535	     88.03696194	    -15.93179661	      0.00000000	     34.32000000
      4.27000000	      0.37667046	     -4.66428508	     -9.29683316	     -0.00423131	      0.00403036	     -0.00078352	    -46.19394911	      8.69689286	     -4.17910785	     -2.34032770	     81.35870917	    -13.34923067	     37.92039968	     87.88151029	    -15.53937660	      0.00000000	     34.32000000
      4.28000000	      0.38932008	     -4.71980283	     -9.34149427	     -0.00423131	      0.00403036	     -0.00078352	    -46.16403531	      8.71327368	     -4.14905546	     -2.32895115	     81.33861316	    -13.33620644	     37.93830983	     87.86469976	    -15.57362158	      0.00000000	     34.32000000
      4.29000000	      0.44170132	     -4.88481946	     -9.23813685	     -0.00423131	      0.00403036	     -0.00078352	    -45.97139735	      8.85958222	     -3.92596062	     -2.22289918	     81.26237555	    -13.25786173	     37.88744325	     87.98379148	    -16.24388359	      0.00000000	     34.32000000
      4.30000000	      0.37839663	     -4.81570751	     -9.28030432	     -0.00423131	      0.00403036	     -0.00078352	    -46.05379352	      8.81218823	     -4.09327239	     -2.26757030	     81.20539529	    -13.30940198	     38.04268960	     87.83102032	    -16.33820782	      0.00000000	     34.32000000
      4.31000000	      0.70892074	     -5.53480384	     -9.02221222	     -0.00423131	      0.00403036	     -0.00078352	    -45.41487248	      9.23072130	     -2.86960608	     -1.89508015	     81.56015957	    -12.93806871	     37.57409830	     87.76450701	    -16.52164679	      0.00000000	     34.32000000
      4.32000000	      0.42093008	     -5.09306930	     -9.27473705	     -0.00423131	      0.00403036	     -0.00078352	    -45.64549939	      8.87506187	     -3.58107053	     -2.21304534	     81.00997985	    -13.08052117	     37.62463631	     88.46262903	    -22.23554145	      0.00000000	     34.32000000
      4.33000000	      0.37198368	     -5.09971229	     -9.26656878	     -0.00423131	      0.00403036	     -0.00078352	    -45.60332435	      8.84915814	     -3.60436606	     -2.24094533	     80.87865197	    -13.06473538	     37.75743687	     88.45425982	    -21.50566265	      0.00000000	     34.32000000
      4.34000000	      0.42870005	     -5.21453030	     -9.25187219	     -0.00423131	      0.00403036	     -0.00078352	    -45.47120847	      8.91819298	     -3.36430010	     -2.17842025	     80.92921985	    -12.98760386	     37.67433678	     88.46362878	    -20.37251250	      0.00000000	     34.32000000
      4.35000000	      0.45108721	     -5.19768448	     -9.28557953	     -0.00423131	      0.00403036	     -0.00078352	    -45.46515009	      8.92648023	     -3.36793346	     -2.17388043	     80.91379837	    -12.98850389	     37.67904938	     88.43686374	    -20.37900605	      0.00000000	     34.32000000
